<mxfile host="app.diagrams.net" agent="Mozilla/5.0 (Windows NT 10.0; Win64; x64) AppleWebKit/537.36 (KHTML, like Gecko) Chrome/135.0.0.0 Safari/537.36 OPR/120.0.0.0 (Edition std-2)" version="28.1.1">
  <diagram name="Página-1" id="hrrwtAiz2E6xMPaG1-kd">
    <mxGraphModel dx="1540" dy="880" grid="1" gridSize="10" guides="1" tooltips="1" connect="1" arrows="1" fold="1" page="1" pageScale="1" pageWidth="2339" pageHeight="3300" math="0" shadow="0">
      <root>
        <mxCell id="0" />
        <mxCell id="1" parent="0" />
        <mxCell id="XacqhNaXpOpdGLphI5MN-32" value="&lt;font color=&quot;#0000ff&quot;&gt;&lt;span style=&quot;font-size: 16px;&quot;&gt;&lt;b&gt;PROPRIEDADES:&lt;/b&gt;&lt;/span&gt;&lt;/font&gt;&amp;nbsp;&lt;div&gt;CURSO: CC&lt;/div&gt;&lt;div&gt;Relação: 1ºSemestre 2023&lt;br&gt;&lt;br&gt;&lt;/div&gt;" style="text;html=1;align=center;verticalAlign=middle;whiteSpace=wrap;rounded=0;" vertex="1" parent="1">
          <mxGeometry x="540" y="1430" width="220" height="30" as="geometry" />
        </mxCell>
        <mxCell id="XacqhNaXpOpdGLphI5MN-39" value="Aluno A" style="ellipse;whiteSpace=wrap;html=1;aspect=fixed;" vertex="1" parent="1">
          <mxGeometry x="400" y="1380" width="80" height="80" as="geometry" />
        </mxCell>
        <mxCell id="XacqhNaXpOpdGLphI5MN-40" value="ALUNO B" style="ellipse;whiteSpace=wrap;html=1;aspect=fixed;" vertex="1" parent="1">
          <mxGeometry x="400" y="1080" width="80" height="80" as="geometry" />
        </mxCell>
        <mxCell id="XacqhNaXpOpdGLphI5MN-41" value="ALUNO C" style="ellipse;whiteSpace=wrap;html=1;aspect=fixed;" vertex="1" parent="1">
          <mxGeometry x="810" y="1370" width="80" height="80" as="geometry" />
        </mxCell>
        <mxCell id="XacqhNaXpOpdGLphI5MN-42" value="ALUNO D" style="ellipse;whiteSpace=wrap;html=1;aspect=fixed;" vertex="1" parent="1">
          <mxGeometry x="820" y="1590" width="80" height="80" as="geometry" />
        </mxCell>
        <mxCell id="XacqhNaXpOpdGLphI5MN-43" value="" style="shape=flexArrow;endArrow=classic;html=1;rounded=0;entryX=0.947;entryY=0.319;entryDx=0;entryDy=0;entryPerimeter=0;" edge="1" parent="1" target="XacqhNaXpOpdGLphI5MN-39">
          <mxGeometry width="50" height="50" relative="1" as="geometry">
            <mxPoint x="810" y="1408.89" as="sourcePoint" />
            <mxPoint x="490" y="1409" as="targetPoint" />
          </mxGeometry>
        </mxCell>
        <mxCell id="XacqhNaXpOpdGLphI5MN-44" value="" style="shape=flexArrow;endArrow=classic;html=1;rounded=0;entryX=1;entryY=1;entryDx=0;entryDy=0;" edge="1" parent="1" target="XacqhNaXpOpdGLphI5MN-39">
          <mxGeometry width="50" height="50" relative="1" as="geometry">
            <mxPoint x="822.5" y="1619.09" as="sourcePoint" />
            <mxPoint x="502.5" y="1619.1999999999998" as="targetPoint" />
          </mxGeometry>
        </mxCell>
        <mxCell id="XacqhNaXpOpdGLphI5MN-45" value="" style="shape=flexArrow;endArrow=classic;html=1;rounded=0;entryX=0.5;entryY=0;entryDx=0;entryDy=0;exitX=0.5;exitY=1;exitDx=0;exitDy=0;" edge="1" parent="1" source="XacqhNaXpOpdGLphI5MN-40" target="XacqhNaXpOpdGLphI5MN-39">
          <mxGeometry width="50" height="50" relative="1" as="geometry">
            <mxPoint x="550" y="1200" as="sourcePoint" />
            <mxPoint x="230" y="1200.11" as="targetPoint" />
          </mxGeometry>
        </mxCell>
        <mxCell id="XacqhNaXpOpdGLphI5MN-46" value="&lt;font color=&quot;#0000ff&quot;&gt;&lt;span style=&quot;font-size: 16px;&quot;&gt;&lt;b&gt;PROPRIEDADES:&lt;/b&gt;&lt;/span&gt;&lt;/font&gt;&amp;nbsp;&lt;div&gt;CURSO: CC&lt;/div&gt;" style="text;html=1;align=center;verticalAlign=middle;whiteSpace=wrap;rounded=0;" vertex="1" parent="1">
          <mxGeometry x="190" y="1405" width="220" height="30" as="geometry" />
        </mxCell>
        <mxCell id="XacqhNaXpOpdGLphI5MN-48" value="&lt;font style=&quot;color: rgb(0, 0, 255);&quot;&gt;&lt;b&gt;&lt;font style=&quot;font-size: 16px;&quot;&gt;RELACIONAMENTO:&lt;/font&gt;&lt;/b&gt;&lt;/font&gt;&amp;nbsp;FORMOU GRUPO COM" style="text;html=1;align=center;verticalAlign=middle;whiteSpace=wrap;rounded=0;" vertex="1" parent="1">
          <mxGeometry x="540" y="1350" width="220" height="30" as="geometry" />
        </mxCell>
        <mxCell id="XacqhNaXpOpdGLphI5MN-49" value="&lt;font style=&quot;color: rgb(0, 0, 255);&quot;&gt;&lt;b&gt;&lt;font style=&quot;font-size: 16px;&quot;&gt;RELACIONAMENTO:&lt;/font&gt;&lt;/b&gt;&lt;/font&gt;&amp;nbsp;FORMOU GRUPO COM" style="text;html=1;align=center;verticalAlign=middle;whiteSpace=wrap;rounded=0;" vertex="1" parent="1">
          <mxGeometry x="660" y="1510" width="220" height="30" as="geometry" />
        </mxCell>
        <mxCell id="XacqhNaXpOpdGLphI5MN-50" value="&lt;font color=&quot;#0000ff&quot;&gt;&lt;span style=&quot;font-size: 16px;&quot;&gt;&lt;b&gt;PROPRIEDADES:&lt;/b&gt;&lt;/span&gt;&lt;/font&gt;&amp;nbsp;&lt;div&gt;CURSO: ADS&lt;/div&gt;&lt;div&gt;Relação: 1ºSemestre 2025&lt;br&gt;&lt;br&gt;&lt;/div&gt;" style="text;html=1;align=center;verticalAlign=middle;whiteSpace=wrap;rounded=0;" vertex="1" parent="1">
          <mxGeometry x="590" y="1630" width="220" height="30" as="geometry" />
        </mxCell>
        <mxCell id="XacqhNaXpOpdGLphI5MN-51" value="&lt;font color=&quot;#0000ff&quot;&gt;&lt;span style=&quot;font-size: 16px;&quot;&gt;&lt;b&gt;PROPRIEDADES:&lt;/b&gt;&lt;/span&gt;&lt;/font&gt;&amp;nbsp;&lt;div&gt;CURSO: CC&lt;/div&gt;&lt;div&gt;Relação: 1ºSemestre 2024&lt;br&gt;&lt;br&gt;&lt;/div&gt;" style="text;html=1;align=center;verticalAlign=middle;whiteSpace=wrap;rounded=0;" vertex="1" parent="1">
          <mxGeometry x="430" y="1230" width="220" height="30" as="geometry" />
        </mxCell>
        <mxCell id="XacqhNaXpOpdGLphI5MN-54" value="ALUNO E" style="ellipse;whiteSpace=wrap;html=1;aspect=fixed;" vertex="1" parent="1">
          <mxGeometry x="740" y="1080" width="80" height="80" as="geometry" />
        </mxCell>
        <mxCell id="XacqhNaXpOpdGLphI5MN-56" value="" style="shape=flexArrow;endArrow=classic;html=1;rounded=0;" edge="1" parent="1">
          <mxGeometry width="50" height="50" relative="1" as="geometry">
            <mxPoint x="740" y="1122.89" as="sourcePoint" />
            <mxPoint x="480" y="1120" as="targetPoint" />
          </mxGeometry>
        </mxCell>
        <mxCell id="XacqhNaXpOpdGLphI5MN-59" value="&lt;font color=&quot;#0000ff&quot;&gt;&lt;span style=&quot;font-size: 16px;&quot;&gt;&lt;b&gt;PROPRIEDADES:&lt;/b&gt;&lt;/span&gt;&lt;/font&gt;&amp;nbsp;&lt;div&gt;CURSO: CC&lt;/div&gt;&lt;div&gt;Relação: 2ºSemestre 2023&lt;br&gt;&lt;br&gt;&lt;/div&gt;" style="text;html=1;align=center;verticalAlign=middle;whiteSpace=wrap;rounded=0;" vertex="1" parent="1">
          <mxGeometry x="502.5" y="1050" width="220" height="30" as="geometry" />
        </mxCell>
        <mxCell id="XacqhNaXpOpdGLphI5MN-60" value="&lt;font style=&quot;color: rgb(0, 0, 255);&quot;&gt;&lt;b&gt;&lt;font style=&quot;font-size: 16px;&quot;&gt;RELACIONAMENTO:&lt;/font&gt;&lt;/b&gt;&lt;/font&gt;&amp;nbsp;FORMOU GRUPO COM" style="text;html=1;align=center;verticalAlign=middle;whiteSpace=wrap;rounded=0;" vertex="1" parent="1">
          <mxGeometry x="190" y="1230" width="220" height="30" as="geometry" />
        </mxCell>
        <mxCell id="XacqhNaXpOpdGLphI5MN-61" value="&lt;font style=&quot;color: rgb(0, 0, 255);&quot;&gt;&lt;b&gt;&lt;font style=&quot;font-size: 16px;&quot;&gt;RELACIONAMENTO:&lt;/font&gt;&lt;/b&gt;&lt;/font&gt;&amp;nbsp;FORMOU GRUPO COM" style="text;html=1;align=center;verticalAlign=middle;whiteSpace=wrap;rounded=0;" vertex="1" parent="1">
          <mxGeometry x="520" y="1140" width="220" height="30" as="geometry" />
        </mxCell>
        <mxCell id="XacqhNaXpOpdGLphI5MN-62" value="ALUNO F" style="ellipse;whiteSpace=wrap;html=1;aspect=fixed;" vertex="1" parent="1">
          <mxGeometry x="1210" y="1150" width="80" height="80" as="geometry" />
        </mxCell>
        <mxCell id="XacqhNaXpOpdGLphI5MN-63" value="ALUNO G" style="ellipse;whiteSpace=wrap;html=1;aspect=fixed;" vertex="1" parent="1">
          <mxGeometry x="1210" y="1355" width="80" height="80" as="geometry" />
        </mxCell>
        <mxCell id="XacqhNaXpOpdGLphI5MN-64" value="&lt;font color=&quot;#0000ff&quot;&gt;&lt;span style=&quot;font-size: 16px;&quot;&gt;&lt;b&gt;PROPRIEDADES:&lt;/b&gt;&lt;/span&gt;&lt;/font&gt;&amp;nbsp;&lt;div&gt;CURSO: ADS&lt;/div&gt;" style="text;html=1;align=center;verticalAlign=middle;whiteSpace=wrap;rounded=0;" vertex="1" parent="1">
          <mxGeometry x="1300" y="1175" width="220" height="30" as="geometry" />
        </mxCell>
        <mxCell id="XacqhNaXpOpdGLphI5MN-65" value="&lt;font style=&quot;color: rgb(0, 0, 255);&quot;&gt;&lt;b&gt;&lt;font style=&quot;font-size: 16px;&quot;&gt;RELACIONAMENTO:&lt;/font&gt;&lt;/b&gt;&lt;/font&gt;&amp;nbsp;SEM RELACÃO" style="text;html=1;align=center;verticalAlign=middle;whiteSpace=wrap;rounded=0;" vertex="1" parent="1">
          <mxGeometry x="970" y="1175" width="220" height="30" as="geometry" />
        </mxCell>
        <mxCell id="XacqhNaXpOpdGLphI5MN-66" value="&lt;font color=&quot;#0000ff&quot;&gt;&lt;span style=&quot;font-size: 16px;&quot;&gt;&lt;b&gt;PROPRIEDADES:&lt;/b&gt;&lt;/span&gt;&lt;/font&gt;&amp;nbsp;&lt;div&gt;CURSO: CC&lt;/div&gt;" style="text;html=1;align=center;verticalAlign=middle;whiteSpace=wrap;rounded=0;" vertex="1" parent="1">
          <mxGeometry x="1300" y="1380" width="220" height="30" as="geometry" />
        </mxCell>
        <mxCell id="XacqhNaXpOpdGLphI5MN-67" value="&lt;font style=&quot;color: rgb(0, 0, 255);&quot;&gt;&lt;b&gt;&lt;font style=&quot;font-size: 16px;&quot;&gt;RELACIONAMENTO:&lt;/font&gt;&lt;/b&gt;&lt;/font&gt;&amp;nbsp;SEM RELACÃO" style="text;html=1;align=center;verticalAlign=middle;whiteSpace=wrap;rounded=0;" vertex="1" parent="1">
          <mxGeometry x="970" y="1380" width="220" height="30" as="geometry" />
        </mxCell>
      </root>
    </mxGraphModel>
  </diagram>
</mxfile>
